<?xml version="1.0" encoding="UTF-8"?>
<!DOCTYPE svg PUBLIC "-//W3C//DTD SVG 1.1//EN" "http://www.w3.org/Graphics/SVG/1.1/DTD/svg11.dtd">
<!-- Creator: CorelDRAW 2021 (64-Bit) -->
<svg xmlns="http://www.w3.org/2000/svg" xml:space="preserve" width="254mm" height="127mm" version="1.1" style="shape-rendering:geometricPrecision; text-rendering:geometricPrecision; image-rendering:optimizeQuality; fill-rule:evenodd; clip-rule:evenodd"
viewBox="0 0 25400 12700"
 xmlns:xlink="http://www.w3.org/1999/xlink"
 xmlns:xodm="http://www.corel.com/coreldraw/odm/2003">
 <defs>
  <style type="text/css">
   <![CDATA[
    .fil0 {fill:white}
   ]]>
  </style>
 </defs>
 <g id="Capa_x0020_1">
  <metadata id="CorelCorpID_0Corel-Layer"/>
  <g id="_2405009840336">
   <polygon class="fil0" points="24802.45,12127.31 25297.34,12127.31 25297.34,418.26 24802.45,418.26 "/>
   <path class="fil0" d="M5964.75 8631.44c-191.86,0 -431.73,-91.31 -431.73,-294.83 0,-125.78 14.14,-224.32 151.47,-301.31 69.44,-38.93 212.5,-65.21 308.72,-80.88 184.84,-30.09 296.01,-44.05 479.09,-89.52 58.69,-14.57 103.91,-32.16 155.81,-44.25 0,207.89 20.35,433.4 -134.02,592.54 -138.07,142.35 -328.47,218.25 -529.34,218.25zm-768.68 -1263.57l368.54 42.12c8.73,-104.86 98.99,-246.13 166.6,-296.7 164.76,-123.27 597.25,-125.82 787.51,16.5 106.5,79.7 119.92,225.53 119.92,406.56 -2.67,0.22 -333.74,79.61 -464.14,93.93 -299.72,32.96 -652.92,58.29 -865.5,261.19 -359.06,342.7 -165.88,1013.75 497.8,1013.75 210.48,0 357.59,-4.75 544.16,-98.15 90.42,-45.28 158.88,-81.26 238.13,-140.93 27.65,-20.82 49.39,-47.27 81.14,-55.76 0,133.81 46.18,179.74 63.18,252.72l389.61 0c-77.44,-146.34 -106.8,-279.47 -105.27,-452.82 0.68,-77.4 -10.83,-109.47 -10.93,-178.61 -0.26,-194.9 19.65,-933 -27.25,-1088.89 -119.91,-398.69 -531.96,-417.22 -899,-417.22 -213.33,0 -465.94,76.24 -594.14,164.01 -163.96,112.26 -239.29,259.13 -290.36,478.3z"/>
   <path class="fil0" d="M22780.73 8631.44c-191.86,0 -431.71,-91.31 -431.71,-294.83 0,-125.78 14.13,-224.32 151.47,-301.31 114.65,-64.27 474.28,-103.2 633.88,-134.78 58.48,-11.56 105.6,-23.62 153.92,-35.62 58.7,-14.57 103.91,-32.16 155.82,-44.25 0,207.89 20.35,433.4 -134.02,592.54 -138.08,142.35 -328.48,218.25 -529.36,218.25zm-768.67 -1263.57l368.55 42.12c8.72,-104.86 98.98,-246.13 166.59,-296.7 39.37,-29.46 104.91,-54.45 164.11,-67.54 208.16,-46.06 468.94,-31.51 623.39,84.04 106.52,79.7 119.93,225.53 119.93,406.56 -36.69,3.06 -69.43,17.49 -109.37,27.51 -442.65,111.08 -943.17,63.14 -1220.26,327.61 -359.08,342.7 -165.9,1013.75 497.79,1013.75 318.34,0 529.48,-48.73 782.31,-239.08 27.63,-20.82 49.37,-47.27 81.12,-55.76 0,133.81 46.18,179.74 63.18,252.72l389.6 0c-77.43,-146.34 -106.78,-279.47 -105.25,-452.82 0.67,-77.4 -10.83,-109.47 -10.93,-178.61 -0.27,-194.9 19.64,-933 -27.25,-1088.89 -33.98,-112.97 -70.44,-163.48 -143.28,-235.8 -256.93,-255.05 -1040.12,-229.46 -1349.86,-17.41 -163.98,112.26 -239.31,259.13 -290.37,478.3z"/>
   <path class="fil0" d="M8291.82 7020.4c236.28,0 449,121.84 538.78,345.7 25.23,62.91 50.88,154.47 50.88,243.96l-1189.86 0c0,-98.93 22.24,-173.89 52.65,-242.19 32.29,-72.57 42.36,-83.65 86.52,-134.59 117.41,-135.45 279.29,-212.88 461.03,-212.88zm-1010.86 810.79c0,408.19 165.56,818.83 538.34,977.95 230.21,98.26 319.37,96.08 567.28,96.08 403.48,0 726.79,-232.84 860.5,-614.91 26.23,-74.94 25.1,-66.04 -134.24,-79.77 -79.33,-6.82 -147.23,-21.35 -231.36,-21.35 -69.82,131.95 -53.11,161.98 -191.99,292.39 -37.68,35.38 -100.7,68.95 -153.95,88.24 -155.35,56.26 -342.94,52.08 -489.61,-18.92 -236.28,-114.39 -375.38,-346.59 -375.38,-646.01l1600.53 0c0,-55.37 14.34,-58.88 10.4,-114.86 -8.62,-122.14 -16.07,-225.75 -48.14,-352.83 -37.51,-148.61 -90.65,-250.56 -169.74,-356.74 -150.03,-201.48 -428.78,-354.9 -698.08,-354.9 -349.11,0 -593.28,52.57 -834.42,323.86 -156.98,176.58 -250.14,450.76 -250.14,781.77z"/>
   <path class="fil0" d="M4543.23 3535.05c0,936.55 1745.53,497.43 1596.35,1238.2 -52.39,260.16 -392.54,341.26 -617.08,341.26 -177.03,0 -372.51,-48.41 -511.92,-140.93 -133.1,-88.34 -235.7,-254.79 -235.7,-427.67l-326.42 31.58c0,535.95 472.65,831.86 1000.32,831.86 286.82,0 543.4,-26.26 759.93,-198.28 320.85,-254.93 384.81,-720.66 53.44,-1015.22 -289.89,-257.69 -968.82,-274.93 -1248.79,-435.97 -221.44,-127.4 -230.59,-614.42 435.42,-614.42 67.26,0 176.93,11.75 237.88,25.36 211.33,47.14 383.38,191.63 383.38,427.41l200.07 0c64.04,0 76.8,-10.52 136.87,-10.52 0,-193.58 -114.9,-424.67 -263.02,-537.24 -473.79,-360.08 -1600.73,-266.2 -1600.73,484.58z"/>
   <path class="fil0" d="M9471.14 7273.11c0,192.84 23.41,336.65 196.94,466.43 351.05,262.54 1150.86,215.55 1150.86,523.36 0,129.77 -51.67,212.01 -158.18,273.52 -182.22,105.25 -531.92,100.03 -711.58,-35.53 -80.21,-60.53 -169.76,-191.16 -172.67,-322.22l-327.22 31.07c-59.54,7.57 -45.12,23.8 -31.81,73.99 104.17,392.79 365.7,621.49 832.87,621.49 223.1,0 328.95,1.49 538.67,-82.59 163.18,-65.43 290.52,-185.15 363.53,-341.96 31.98,-68.71 36.65,-105.56 48.97,-193.7 36.69,-262.48 -135.37,-470.83 -378.42,-554.7 -254.69,-87.9 -480.67,-136.24 -737.59,-210.1 -161.67,-46.47 -256.35,-98.36 -256.35,-259.59 0,-40.57 33.14,-90.09 54.94,-113.53 36.32,-39.02 52.56,-53.94 102.9,-76.1 163.06,-71.83 468.61,-73.78 615.47,27.05 69.1,47.43 150.91,149.86 153.3,257.35l368.55 -42.13c-46.31,-198.73 -85.81,-320.97 -246.54,-437.9 -189.84,-138.11 -442.56,-151.76 -690.61,-151.76 -325.95,0 -716.03,223.83 -716.03,547.55z"/>
   <path class="fil0" d="M1247.42 7041.46l0 -273.77 -336.95 0 0 2095.41 368.53 0 0 -1158.27c0,-333.93 92.84,-571.27 412.44,-651.07 318.63,-79.56 598.42,63.1 598.42,429.94l0 1379.4 379.07 0 0 -1305.7c0,-276.9 -26.36,-445.98 -151.68,-606.45 -92.65,-118.64 -324.32,-225.39 -532.75,-225.39 -223.77,0 -452.72,24.52 -624.05,197.27l-113.03 118.63z"/>
   <path class="fil0" d="M13661.98 8157.6c0,194.62 38.86,404.78 170.77,545.26 108.29,115.35 351.63,202.36 513.67,202.36 246.53,0 440.02,-32.97 618.64,-213.21 21.76,-21.97 36.1,-35.85 58.03,-57.78 23.33,-23.35 40.27,-51.21 60.4,-65.97l0 294.84 336.95 0 0 -2095.41 -379.07 0 0 1200.38c0,182.98 -42.35,350.75 -134.01,445.12 -294.2,302.87 -863.92,238.05 -866.66,-234.17 -0.59,-100.62 -10.17,-175.21 -10.17,-284.65l0 -1126.68 -368.55 0 0 1389.91z"/>
   <path class="fil0" d="M18705.72 8157.6c0,144.03 28.99,328.37 95.03,442 112.18,193.03 368.6,305.62 589.4,305.62 333.74,0 459.59,-53.8 676.68,-270.99 23.33,-23.35 40.27,-51.21 60.41,-65.97l0 294.84 336.95 0 0 -2095.41 -379.07 0 0 1200.38c0,401.23 -180.6,582.97 -540.18,629.34 -137.31,17.71 -318.7,-56.34 -399.39,-184.66 -71.83,-114.23 -71.29,-364.6 -71.29,-518.38l0 -1126.68 -368.54 0 0 1389.91z"/>
   <path class="fil0" d="M21569.81 4451.14c0,207.39 -7.14,363.12 -132.18,531.19 -126.35,169.83 -402.06,233.23 -606.65,91.81 -154.82,-107.03 -235.97,-297.99 -240.44,-486.11 -1.39,-58.84 -14.9,-79.75 -10.33,-135.97 22.26,-273.97 72.52,-562.24 366.58,-645.01 201.74,-56.77 382.67,26.92 502.92,185.06 76.05,100.04 120.1,286.41 120.1,459.03zm-21.06 -684.43c-72.58,-48.6 -92.08,-104.69 -192.88,-154.6 -164.71,-81.58 -194.76,-77.06 -375.72,-77.06 -108.55,0 -245.84,50.33 -319.35,91.31 -511.93,285.37 -585.51,1322.93 15.84,1686.36 244.94,148.02 639.29,145.6 847.86,-106.64 19.18,-23.19 21.56,-33.54 45.31,-49.45l0 210.6 294.84 0 0 -2474.49 -315.9 0 0 873.97z"/>
   <path class="fil0" d="M14567.54 5167.17c-31.39,0 -108.41,-9.73 -141.53,-16.43 -51.37,-10.41 -83.86,-24.04 -119.09,-49.37 -169.18,-121.64 -143.11,-336.33 -1.08,-427.57 100.56,-64.6 411.49,-96.8 552.11,-121.78l278.19 -69.29c0,318.76 -22.6,494.18 -308.73,628.41 -64.67,30.33 -187.34,56.03 -259.87,56.03zm-347.48 -1042.45c11.23,-135.01 122.02,-279.25 284.79,-315.39 124.88,-27.74 252.45,-27.45 376.15,1.93 237.38,56.37 255.14,196.43 255.14,418.75l-186.83 44.84c-325.69,64.93 -736.09,51.8 -942.69,257.69 -327.73,326.62 -121.28,876.81 413.5,876.81 250.95,0 397.79,-18.99 608.65,-160.02 47.37,-31.68 85.02,-63.62 128.44,-92.7 11.44,23.85 18.24,75.42 27.03,109.85 13.33,52.19 26.39,58.92 36.14,100.75l336.95 0c-180.98,-342.03 -44.88,-791.49 -97.64,-1176.46 -28.02,-204.4 40.89,-480.69 -348.25,-609.94 -304.69,-101.2 -863.47,-52.15 -1056.82,178.38 -65.53,78.14 -107.77,165.85 -139.02,273.51 -21.08,72.64 -6.66,53.33 115.52,70.34 64.03,8.92 118.95,21.66 188.94,21.66z"/>
   <path class="fil0" d="M18295.06 5167.17c-80.92,0 -194.57,-18.32 -260.62,-65.8 -169.17,-121.64 -143.1,-336.33 -1.08,-427.57 100.57,-64.6 411.49,-96.8 552.12,-121.78l278.19 -69.29c0,318.76 -22.6,494.18 -308.73,628.41 -64.67,30.33 -187.35,56.03 -259.88,56.03zm-347.48 -1042.45c11.24,-135.01 122.02,-279.25 284.8,-315.39 156.99,-34.86 398.72,-31.54 527.83,71.37 99.99,79.71 103.46,176.49 103.46,349.31l-186.83 44.84c-63.7,12.69 -130.72,23.56 -207.33,34.84 -248.02,36.54 -553.83,41.93 -735.36,222.85 -327.73,326.62 -121.28,876.81 413.5,876.81 250.94,0 397.78,-18.99 608.65,-160.02 47.36,-31.68 85.01,-63.62 128.44,-92.7 11.44,23.85 18.24,75.42 27.03,109.85 13.32,52.19 26.39,58.92 36.14,100.75l336.95 0c-180.98,-342.03 -44.88,-791.49 -97.64,-1176.46 -12.6,-91.88 0.2,-199.75 -24.81,-291.08 -47.77,-174.45 -161.74,-265.16 -323.45,-318.86 -304.68,-101.2 -863.46,-52.15 -1056.81,178.38 -65.54,78.14 -107.78,165.85 -139.02,273.51 -21.09,72.64 -6.65,53.33 115.52,70.34 64.03,8.92 118.94,21.66 188.93,21.66z"/>
   <path class="fil0" d="M15694.22 7831.19c0,161.84 24.1,310.78 61.8,433.09 21.79,70.72 40,108.58 71.41,170.77 140.33,277.81 465.18,470.17 772.35,470.17l147.41 0c225.43,0 452.21,-119.09 566.07,-234.19 128.66,-130.08 261.73,-352.77 265.78,-534.48l-368.53 -42.13c0,119.54 -67.9,273.91 -155.26,360.7 -286.05,284.21 -788.78,160.61 -917.61,-224.98 -74.61,-223.26 -84.43,-584.33 -4.24,-812.69 18.92,-53.82 47.96,-115.57 76.56,-155.09 115.99,-160.2 245.08,-212.25 456.17,-239.52 242.59,-31.33 507.81,195.42 512.79,418.74l368.53 -42.12c-23.14,-99.31 -49.11,-194.3 -96.63,-271.91 -199.51,-325.81 -429.44,-401.99 -840.51,-401.99 -252.97,0 -526.78,129.42 -686.88,323.98 -150.45,182.84 -229.21,452.68 -229.21,781.65z"/>
   <path class="fil0" d="M7512.61 3787.76c287.37,0 505.43,218.42 505.43,505.43l-1021.38 0c4.45,-200.24 125.66,-381.33 300.66,-457.47 50.97,-22.18 148.94,-47.96 215.29,-47.96zm-863.43 684.45c0,276.56 72.13,525.37 218.27,676.74 222.25,230.2 426.68,260.4 739.93,260.4 350.14,0 636.01,-237.29 729.59,-536.4 18.91,-60.4 6.56,-48.92 -129.4,-63.78 -66.26,-7.26 -117.26,-21.07 -189.53,-21.07 -13.04,27.17 -19.58,50.38 -34.84,80.97 -17.16,34.42 -27.01,49.17 -47.1,79.26 -114.38,171.42 -288.67,228.24 -515.51,195.03 -266.25,-38.98 -434.47,-307.52 -434.47,-597.45l1368.88 0c0,-284.25 -20.64,-553.82 -218.34,-750.4 -226.19,-224.88 -364.56,-260.46 -687.23,-260.46 -246,0 -471.73,141.11 -586.6,276.84 -131.3,155.12 -213.65,377.8 -213.65,660.32z"/>
   <path class="fil0" d="M22970.27 3787.76c287.38,0 505.43,218.42 505.43,505.43l-1021.39 0c4.46,-200.24 125.66,-381.33 300.67,-457.47 50.98,-22.18 148.94,-47.96 215.29,-47.96zm-863.44 684.45c0,341.87 97.63,603.6 329.27,776.34 34.53,25.75 89.91,61.86 130.8,79.8 375.44,164.62 948.37,103.43 1161.67,-308.44 119.48,-230.74 89.09,-194.08 -63.35,-210.74 -66.26,-7.26 -117.25,-21.07 -189.52,-21.07 -37.03,77.15 -22.39,70.99 -81.95,160.23 -114.37,171.42 -288.65,228.24 -515.51,195.03 -266.25,-38.98 -434.45,-307.52 -434.45,-597.45l1368.86 0c0,-284.25 -20.62,-553.82 -218.34,-750.4 -226.19,-224.88 -364.55,-260.46 -687.22,-260.46 -246.01,0 -471.73,141.11 -586.61,276.84 -131.3,155.12 -213.65,377.8 -213.65,660.32z"/>
   <path class="fil0" d="M12029.87 3787.76c287.37,0 505.43,218.42 505.43,505.43l-1021.39 0c4.46,-200.24 125.67,-381.33 300.67,-457.47 50.98,-22.18 148.94,-47.96 215.29,-47.96zm-863.44 684.45c0,378.47 145.83,718.35 460.07,856.14 375.44,164.62 948.38,103.43 1161.67,-308.44 19.83,-38.3 51.93,-101.76 66.07,-146.96 18.9,-60.4 6.55,-48.92 -129.42,-63.78 -66.26,-7.26 -117.25,-21.07 -189.52,-21.07 -37.03,77.15 -22.39,70.99 -81.95,160.23 -186.26,279.16 -602.98,272.32 -821.34,5.97 -84.49,-103.02 -128.62,-247.17 -128.62,-408.39l1368.86 0c0,-284.25 -20.62,-553.82 -218.34,-750.4 -226.19,-224.88 -364.55,-260.46 -687.22,-260.46 -246.01,0 -471.72,141.11 -586.6,276.84 -131.31,155.12 -213.66,377.8 -213.66,660.32z"/>
   <path class="fil0" d="M3142.77 6504.44l0 263.25 -326.43 0 0 273.77 326.43 0 0 1821.64 368.54 0 0 -1821.64 421.19 0 0 -273.77 -421.19 0c0,-178.35 -26.1,-416.53 135.02,-475.72 164.15,-60.31 263.9,-8.66 391.47,-8.66l52.65 -315.89c-44.77,-0.99 -93.05,-15.25 -137.71,-20.23 -429.56,-47.88 -809.97,21.2 -809.97,557.25z"/>
   <path class="fil0" d="M11524.44 6241.19l0 526.5 -263.25 0 0 273.77 263.25 0c0,263.23 -14.45,1300.94 14.64,1501.64 13.46,92.88 26.89,134.44 69.28,193.96 127.16,178.47 418.23,173.3 627.87,142.85 75.34,-10.94 84.71,0.08 71.58,-71.77 -16.32,-89.25 -27.17,-178.89 -46.28,-260.93 -88.73,0 -268.06,44.82 -335.62,-64.53 -26.07,-42.18 -32.93,-150.09 -32.93,-219.78l0 -1221.44 368.55 0 0 -273.77 -368.55 0 0 -726.56c-39.87,9.29 -58.33,25.44 -91.45,45.43l-277.09 154.63z"/>
   <path class="fil0" d="M17789.63 6241.19l0 526.5 -263.23 0 0 273.77 263.23 0c0,263.23 -14.45,1300.94 14.64,1501.64 52.7,363.64 385.09,382.13 697.15,336.81 75.35,-10.94 84.71,0.08 71.58,-71.77 -16.32,-89.25 -27.16,-178.89 -46.28,-260.93 -220.04,0 -368.54,79.65 -368.54,-284.31l0 -1221.44 368.54 0 0 -273.77 -368.54 0 0 -726.56c-69.18,16.12 -301.86,184.53 -368.55,200.06z"/>
   <path class="fil0" d="M8502.41 4430.08c0,284.44 39.1,537.04 213.09,724.07 194.99,209.58 383.83,255.2 681.94,255.2 254.82,0 460.4,-142.95 571.73,-291.7 67.06,-89.61 102.48,-176.42 134.78,-298.2 25.84,-97.5 -15.63,-69.2 -108.17,-82.16 -68.34,-9.57 -126.02,-22.9 -198.21,-22.9 0,272.65 -264.03,504.74 -583.28,425.33 -495.01,-123.12 -436.3,-917.94 -262.34,-1155.13 126.3,-172.24 356.27,-235.94 562.89,-166.82 200.79,67.19 235.27,273 261.67,328.01l254.66 -29.79c43.51,-5.92 54.89,0.35 48.08,-49.16 -11.61,-84.36 -85.66,-218.54 -127.94,-274.85 -328.99,-438.13 -1448.9,-388.78 -1448.9,638.1z"/>
   <polygon class="fil0" points="36.5,8863.1 436.63,8863.1 436.63,5977.96 36.5,5977.96 "/>
   <path class="fil0" d="M21190.74 7073.04l0 -305.35 -336.95 0 0 2095.41 379.07 0 0 -1168.8c0,-151.78 41.81,-397.83 165.67,-508.24 138.89,-123.81 347.74,-103.17 508.24,-18.25 23.24,-43.94 45.92,-113.07 66.31,-165.33 21.56,-55.22 47.03,-115.77 60.05,-171.62 -215.93,-114.25 -483.04,-176.76 -676.75,18.22 -86,86.58 -122.06,173.83 -165.64,223.96z"/>
   <path class="fil0" d="M4364.22 7073.04l0 -305.35 -336.95 0 0 2095.41 379.07 0 0 -1168.8c0,-151.78 41.81,-397.83 165.67,-508.24 138.89,-123.81 347.74,-103.17 508.24,-18.25l126.35 -336.95c-215.92,-114.25 -483.04,-176.76 -676.74,18.22 -86,86.58 -122.07,173.83 -165.64,223.96z"/>
   <path class="fil0" d="M12777.48 7073.04l0 -305.35 -336.95 0 0 2095.41 379.07 0 0 -1168.8c0,-151.78 41.81,-397.83 165.67,-508.24 138.89,-123.81 347.74,-103.17 508.24,-18.25l126.36 -336.95c-215.93,-114.25 -483.05,-176.76 -676.75,18.22 -86,86.58 -122.06,173.83 -165.64,223.96z"/>
   <path class="fil0" d="M13167.08 3155.99l0 421.18 -221.12 0 0 231.66 221.12 0c0,211.41 -26.82,1261.27 48.85,1404.25 100.41,189.69 365.47,194.99 560.97,163.63 64.2,-10.28 73.53,-0.08 66.98,-51.96 -9.87,-78.1 -34.48,-148.39 -34.48,-231.29 -141.25,0 -315.89,22.39 -315.89,-147.42l0 -1137.21 305.36 0 0 -231.66 -305.36 0 0 -621.25c-44.61,3.71 -131.17,63.17 -174.56,88.69 -59.67,35.07 -151.87,76.38 -151.87,111.38z"/>
   <path class="fil0" d="M10513.59 3829.89l0 -252.72 -284.31 0 0 1790.06 315.9 0c0,-305.85 -23.93,-960.29 32.22,-1220.82 17.53,-81.36 49.37,-151.39 101.68,-203.69 180.91,-180.91 391.71,-33.92 455.76,-28.6 5.88,-70.69 88.4,-207.71 94.76,-284.3 -145.95,-77.24 -306.1,-140.79 -481.16,-59.97 -69.18,31.93 -122.99,97.82 -167.25,159.16l-67.6 100.88z"/>
   <path class="fil0" d="M16083.81 3829.89l0 -252.72 -284.3 0 0 1790.06 315.89 0c0,-305.85 -23.92,-960.29 32.23,-1220.82 99.44,-461.36 532.89,-234.33 557.45,-232.29 5.88,-70.69 88.39,-207.71 94.77,-284.3 -145.97,-77.24 -306.12,-140.79 -481.18,-59.97 -53.01,24.46 -57.72,35.33 -95.45,73.01 -82.07,82.01 -106.32,148.98 -139.41,187.03z"/>
   <polygon class="fil0" points="16968.31,5367.23 17294.74,5367.23 17294.74,3577.17 16968.31,3577.17 "/>
   <path class="fil0" d="M16863.07 3356.07c51.62,-0.02 233.69,9.07 268.75,-5 12.45,-4.98 358.38,-420.33 384.04,-468.86l-421.19 0 -231.6 473.86z"/>
  </g>
 </g>
</svg>
